<?xml version="1.0" encoding="utf-8"?>
<!-- Generator: Adobe Illustrator 23.0.1, SVG Export Plug-In . SVG Version: 6.00 Build 0)  -->
<svg version="1.1" id="Layer_1" xmlns="http://www.w3.org/2000/svg" xmlns:xlink="http://www.w3.org/1999/xlink" x="0px" y="0px"
	 viewBox="0 0 170.4 159.1" style="enable-background:new 0 0 170.4 159.1;" xml:space="preserve">
<style type="text/css">
	.st0{fill:#FFFFFF;}
</style>
<g>
	<g>
		<circle class="st0" cx="85.2" cy="84.6" r="61.9"/>
		<g>
			<path d="M79.1,71.4V51.1h49.5v20.3h-8.5c-2.8,0-4.1,1.5-6.6,3.7L86.9,97.2h22.5v20.3H63.7V97.2h22.5L59.7,75.1
				c-2.6-2.2-3.9-3.7-6.6-3.7h-8.5V51.1h34.1v20.3h-19c-1.3,0-1.8,0.3-1.8,0.9c0,0.4,0.2,0.8,1,1.5l13.6,11.3l13.6-11.3
				c0.8-0.7,1-1.1,1-1.5c0-0.7-0.5-0.9-1.8-0.9H79.1z"/>
		</g>
	</g>
</g>
</svg>
